<svg width="24" height="24" viewBox="0 0 24 24" fill="none" xmlns="http://www.w3.org/2000/svg">
<path d="M20.9375 3.5H3.0625C1.90234 3.5 1 4.44531 1 5.5625V17.9375C1 19.0977 1.90234 20 3.0625 20H20.9375C22.0547 20 23 19.0977 23 17.9375V5.5625C23 4.44531 22.0547 3.5 20.9375 3.5ZM20.9375 5.5625V7.32422C19.9492 8.14062 18.4023 9.34375 15.1367 11.9219C14.4062 12.4805 12.9883 13.8555 12 13.8125C10.9688 13.8555 9.55078 12.4805 8.82031 11.9219C5.55469 9.34375 4.00781 8.14062 3.0625 7.32422V5.5625H20.9375ZM3.0625 17.9375V9.98828C4.00781 10.7617 5.42578 11.8789 7.53125 13.5547C8.47656 14.2852 10.1523 15.918 12 15.875C13.8047 15.918 15.4375 14.2852 16.4258 13.5547C18.5312 11.8789 19.9492 10.7617 20.9375 9.98828V17.9375H3.0625Z" fill="white"/>
</svg>
