<svg width="24" height="24" viewBox="0 0 24 24" fill="none" xmlns="http://www.w3.org/2000/svg">
<path d="M22.7941 19.5586L2.26989 3.14062C2.16693 3.07031 2.02964 3 1.92668 3C1.75507 3 1.58346 3.10547 1.4805 3.21094L1.13729 3.66797C1.06864 3.73828 1 3.91406 1 4.01953C1 4.16016 1.10296 4.37109 1.24025 4.44141L21.7644 20.8945C21.8331 20.9648 21.9704 21 22.1076 21C22.2449 21 22.4165 20.9297 22.5195 20.7891L22.8627 20.3672C22.9314 20.2969 23 20.1211 23 20.0156C23 19.875 22.897 19.6641 22.7941 19.5586ZM11.1934 8.16797L15.8268 11.8594C15.7582 9.75 14.0764 8.0625 12.0172 8.0625C11.7769 8.09766 11.4337 8.13281 11.1934 8.16797ZM12.8066 15.8672L8.17317 12.1758C8.24181 14.2852 9.92356 15.9375 12.0172 15.9375C12.2231 15.9375 12.5663 15.9023 12.8066 15.8672ZM12.0172 6.9375C15.3807 6.9375 18.5039 8.87109 20.1513 12C19.8081 12.668 19.156 13.6172 18.6412 14.1445L19.9454 15.1641C20.5632 14.4961 21.3526 13.3359 21.7644 12.5273C21.8331 12.3867 21.9017 12.1758 21.9017 12C21.9017 11.8594 21.8331 11.6484 21.7644 11.5078C19.9111 7.78125 16.2044 5.25 12.0172 5.25C10.7473 5.25 9.54602 5.49609 8.41342 5.91797L9.9922 7.21875C10.6443 7.04297 11.3307 6.9375 12.0172 6.9375ZM12.0172 17.0625C8.61934 17.0625 5.4961 15.1289 3.84867 12C4.19189 11.3672 4.84399 10.418 5.35881 9.89062L4.0546 8.87109C3.43682 9.53906 2.64743 10.6992 2.23557 11.5078C2.16693 11.6484 2.13261 11.8594 2.13261 12.0352C2.13261 12.1758 2.16693 12.3867 2.23557 12.5273C4.08892 16.2539 7.79563 18.75 12.0172 18.75C13.2527 18.75 14.454 18.5039 15.5866 18.1172L14.0078 16.8164C13.3557 16.9922 12.6693 17.0625 12.0172 17.0625Z" fill="#D3E7EF"/>
</svg>
