<svg width="24" height="24" viewBox="0 0 24 24" fill="none" xmlns="http://www.w3.org/2000/svg">
<path d="M18.7692 1H5.23077C4.1087 1 3.03259 1.44574 2.23916 2.23916C1.44574 3.03259 1 4.1087 1 5.23077V18.7692C1 19.8913 1.44574 20.9674 2.23916 21.7608C3.03259 22.5543 4.1087 23 5.23077 23H12C12.2244 23 12.4396 22.9109 12.5983 22.7522C12.757 22.5935 12.8462 22.3783 12.8462 22.1538V15.3846C12.8462 15.1602 12.757 14.945 12.5983 14.7863C12.4396 14.6276 12.2244 14.5385 12 14.5385H11.1538V12.8462H12C12.2244 12.8462 12.4396 12.757 12.5983 12.5983C12.757 12.4396 12.8462 12.2244 12.8462 12V9.03846C12.8462 8.47743 13.069 7.93937 13.4657 7.54266C13.8624 7.14595 14.4005 6.92308 14.9615 6.92308H17.0769V8.61538H16.2308C15.7819 8.61538 15.3515 8.79368 15.0341 9.11105C14.7168 9.42842 14.5385 9.85886 14.5385 10.3077V12C14.5385 12.2244 14.6276 12.4396 14.7863 12.5983C14.945 12.757 15.1602 12.8462 15.3846 12.8462H16.84L16.4169 14.5385H15.3846C15.1602 14.5385 14.945 14.6276 14.7863 14.7863C14.6276 14.945 14.5385 15.1602 14.5385 15.3846V18.7692C14.5385 18.9936 14.6276 19.2089 14.7863 19.3676C14.945 19.5262 15.1602 19.6154 15.3846 19.6154C15.609 19.6154 15.8243 19.5262 15.9829 19.3676C16.1416 19.2089 16.2308 18.9936 16.2308 18.7692V16.2308H17.0769C17.2702 16.2364 17.4596 16.1757 17.6136 16.0587C17.7675 15.9416 17.8767 15.7754 17.9231 15.5877L18.7692 12.2031C18.8009 12.0782 18.8037 11.9477 18.7773 11.8216C18.7509 11.6955 18.696 11.5771 18.6169 11.4754C18.5346 11.3711 18.4289 11.2876 18.3084 11.2318C18.1879 11.1759 18.0559 11.1492 17.9231 11.1538H16.2308V10.3077H17.9231C18.1475 10.3077 18.3627 10.2185 18.5214 10.0599C18.6801 9.90117 18.7692 9.68595 18.7692 9.46154V6.07692C18.7692 5.85251 18.6801 5.63729 18.5214 5.4786C18.3627 5.31992 18.1475 5.23077 17.9231 5.23077H14.9615C13.9524 5.233 12.9852 5.63489 12.2716 6.34849C11.558 7.06208 11.1561 8.02929 11.1538 9.03846V11.1538H10.3077C10.0833 11.1538 9.86806 11.243 9.70937 11.4017C9.55069 11.5604 9.46154 11.7756 9.46154 12V15.3846C9.46154 15.609 9.55069 15.8243 9.70937 15.9829C9.86806 16.1416 10.0833 16.2308 10.3077 16.2308H11.1538V21.3077H5.23077C4.55753 21.3077 3.91186 21.0402 3.43581 20.5642C2.95975 20.0881 2.69231 19.4425 2.69231 18.7692V5.23077C2.69231 4.55753 2.95975 3.91186 3.43581 3.43581C3.91186 2.95975 4.55753 2.69231 5.23077 2.69231H18.7692C19.4425 2.69231 20.0881 2.95975 20.5642 3.43581C21.0402 3.91186 21.3077 4.55753 21.3077 5.23077V18.7692C21.3077 19.4425 21.0402 20.0881 20.5642 20.5642C20.0881 21.0402 19.4425 21.3077 18.7692 21.3077H15.3846C15.1602 21.3077 14.945 21.3968 14.7863 21.5555C14.6276 21.7142 14.5385 21.9294 14.5385 22.1538C14.5385 22.3783 14.6276 22.5935 14.7863 22.7522C14.945 22.9109 15.1602 23 15.3846 23H18.7692C19.8913 23 20.9674 22.5543 21.7608 21.7608C22.5543 20.9674 23 19.8913 23 18.7692V5.23077C23 4.1087 22.5543 3.03259 21.7608 2.23916C20.9674 1.44574 19.8913 1 18.7692 1Z" fill="white"/>
</svg>
