<svg width="32" height="32" viewBox="0 0 32 32" fill="none" xmlns="http://www.w3.org/2000/svg">
<path d="M16 1C7.72903 1 1 7.72903 1 16C1 24.2704 7.72903 31 16 31C24.2704 31 31 24.2704 31 16C31 7.72903 24.2716 1 16 1ZM19.7304 16.5281H17.29V25.2262H13.6738C13.6738 25.2262 13.6738 20.4735 13.6738 16.5281H11.9548V13.4539H13.6738V11.4654C13.6738 10.0413 14.3505 7.81604 17.3232 7.81604L20.0029 7.82631V10.8105C20.0029 10.8105 18.3745 10.8105 18.0579 10.8105C17.7413 10.8105 17.2912 10.9688 17.2912 11.6479V13.4545H20.0464L19.7304 16.5281Z" fill="white"/>
</svg>
