<svg width="56" height="56" viewBox="0 0 56 56" fill="#1F2128" xmlns="http://www.w3.org/2000/svg">
<rect width="56" height="56" rx="28" fill="white"/>
<path d="M38.4107 21.6809C38.7054 21.6809 39 21.4415 39 21.1064V19.5745C39 19.2872 38.7054 19 38.4107 19H17.5893C17.2455 19 17 19.2872 17 19.5745V21.1064C17 21.4415 17.2455 21.6809 17.5893 21.6809H38.4107ZM38.4107 29.3404C38.7054 29.3404 39 29.1011 39 28.766V27.234C39 26.9468 38.7054 26.6596 38.4107 26.6596H17.5893C17.2455 26.6596 17 26.9468 17 27.234V28.766C17 29.1011 17.2455 29.3404 17.5893 29.3404H38.4107ZM38.4107 37C38.7054 37 39 36.7606 39 36.4255V34.8936C39 34.6064 38.7054 34.3191 38.4107 34.3191H17.5893C17.2455 34.3191 17 34.6064 17 34.8936V36.4255C17 36.7606 17.2455 37 17.5893 37H38.4107Z" fill="#1F2128"/>
</svg>
