<svg width="24" height="24" viewBox="0 0 24 24" fill="none" xmlns="http://www.w3.org/2000/svg">
<path d="M12.0025 6.35829C8.88098 6.35829 6.36319 8.87608 6.36319 11.9976C6.36319 15.119 8.88098 17.6368 12.0025 17.6368C15.1239 17.6368 17.6417 15.119 17.6417 11.9976C17.6417 8.87608 15.1239 6.35829 12.0025 6.35829ZM12.0025 15.6638C9.98528 15.6638 8.3362 14.0196 8.3362 11.9976C8.3362 9.97547 9.98037 8.3313 12.0025 8.3313C14.0245 8.3313 15.6687 9.97547 15.6687 11.9976C15.6687 14.0196 14.0196 15.6638 12.0025 15.6638ZM19.1877 6.12761C19.1877 6.8589 18.5988 7.44295 17.8724 7.44295C17.1411 7.44295 16.5571 6.85399 16.5571 6.12761C16.5571 5.40123 17.146 4.81227 17.8724 4.81227C18.5988 4.81227 19.1877 5.40123 19.1877 6.12761ZM22.9227 7.46258C22.8393 5.70062 22.4368 4.13988 21.146 2.85399C19.8601 1.5681 18.2994 1.16564 16.5374 1.0773C14.7215 0.974233 9.27853 0.974233 7.46258 1.0773C5.70552 1.16074 4.14479 1.56319 2.85399 2.84908C1.56319 4.13497 1.16564 5.69571 1.0773 7.45767C0.974233 9.27363 0.974233 14.7166 1.0773 16.5325C1.16074 18.2945 1.56319 19.8552 2.85399 21.1411C4.14479 22.427 5.70061 22.8295 7.46258 22.9178C9.27853 23.0209 14.7215 23.0209 16.5374 22.9178C18.2994 22.8344 19.8601 22.4319 21.146 21.1411C22.4319 19.8552 22.8344 18.2945 22.9227 16.5325C23.0258 14.7166 23.0258 9.27853 22.9227 7.46258ZM20.5767 18.481C20.1939 19.443 19.4528 20.1841 18.4859 20.5718C17.038 21.146 13.6025 21.0135 12.0025 21.0135C10.4025 21.0135 6.96196 21.1411 5.51902 20.5718C4.55705 20.189 3.81595 19.4479 3.42822 18.481C2.85399 17.0331 2.9865 13.5976 2.9865 11.9976C2.9865 10.3976 2.8589 6.95706 3.42822 5.51411C3.81104 4.55215 4.55215 3.81105 5.51902 3.42331C6.96687 2.84908 10.4025 2.9816 12.0025 2.9816C13.6025 2.9816 17.0429 2.85399 18.4859 3.42331C19.4479 3.80614 20.189 4.54724 20.5767 5.51411C21.1509 6.96197 21.0184 10.3976 21.0184 11.9976C21.0184 13.5976 21.1509 17.0381 20.5767 18.481Z" fill="white"/>
</svg>
