<svg width="32" height="32" viewBox="0 0 32 32" fill="none" xmlns="http://www.w3.org/2000/svg">
<path d="M15.9995 19.0029C17.6544 19.0029 19.0036 17.6561 19.0036 16C19.0036 15.3462 18.7897 14.7426 18.4356 14.2496C17.89 13.4932 17.003 12.9971 16.0013 12.9971C14.9989 12.9971 14.1125 13.4925 13.5657 14.249C13.2104 14.742 12.9984 15.3456 12.9978 15.9994C12.9959 17.6555 14.3439 19.0029 15.9995 19.0029Z" fill="white"/>
<path d="M22.5567 12.3264V9.8093V9.43469L22.1803 9.4359L19.6644 9.44376L19.6741 12.3361L22.5567 12.3264Z" fill="white"/>
<path d="M16 1C7.72903 1 1 7.72903 1 16C1 24.2704 7.72903 31 16 31C24.2704 31 31 24.2704 31 16C31 7.72903 24.2716 1 16 1ZM24.5308 14.2496V21.2342C24.5308 23.0535 23.0517 24.532 21.2336 24.532H10.7664C8.94772 24.532 7.46923 23.0535 7.46923 21.2342V14.2496V10.767C7.46923 8.94832 8.94772 7.46983 10.7664 7.46983H21.233C23.0517 7.46983 24.5308 8.94832 24.5308 10.767V14.2496Z" fill="white"/>
<path d="M20.6663 16C20.6663 18.5721 18.5733 20.6663 16 20.6663C13.4267 20.6663 11.3343 18.5721 11.3343 16C11.3343 15.3813 11.4576 14.7898 11.6775 14.2496H9.1308V21.2342C9.1308 22.1369 9.8637 22.868 10.7658 22.868H21.2324C22.1333 22.868 22.8674 22.1369 22.8674 21.2342V14.2496H20.3195C20.5412 14.7898 20.6663 15.3813 20.6663 16Z" fill="white"/>
</svg>
