<svg width="24" height="24" viewBox="0 0 24 24" fill="none" xmlns="http://www.w3.org/2000/svg">
<path d="M15.7746 14.0625C14.5446 14.0625 13.9933 14.75 12 14.75C9.96429 14.75 9.41295 14.0625 8.18304 14.0625C5.04464 14.0625 2.5 16.6836 2.5 19.8633V20.9375C2.5 22.0977 3.39062 23 4.53571 23H19.4643C20.567 23 21.5 22.0977 21.5 20.9375V19.8633C21.5 16.6836 18.9129 14.0625 15.7746 14.0625ZM19.4643 20.9375H4.53571V19.8633C4.53571 17.8008 6.14732 16.125 8.18304 16.125C8.8192 16.125 9.79464 16.8125 12 16.8125C14.1629 16.8125 15.1384 16.125 15.7746 16.125C17.8103 16.125 19.4643 17.8008 19.4643 19.8633V20.9375ZM12 13.375C15.3504 13.375 18.1071 10.625 18.1071 7.1875C18.1071 3.79297 15.3504 1 12 1C8.60714 1 5.89286 3.79297 5.89286 7.1875C5.89286 10.625 8.60714 13.375 12 13.375ZM12 3.0625C14.2054 3.0625 16.0714 4.95312 16.0714 7.1875C16.0714 9.46484 14.2054 11.3125 12 11.3125C9.75223 11.3125 7.92857 9.46484 7.92857 7.1875C7.92857 4.95312 9.75223 3.0625 12 3.0625Z" fill="white"/>
</svg>
