<svg width="24" height="24" viewBox="0 0 24 24" fill="none" xmlns="http://www.w3.org/2000/svg">
<path d="M1.95237 12.0232H19.7487L15.5022 7.66742C15.1302 7.28608 15.1302 6.66746 15.5022 6.28618C15.8742 5.90461 16.4773 5.90461 16.8488 6.28618L22.721 12.3093C23.093 12.6906 23.093 13.3093 22.721 13.6905L16.8488 19.7139C16.6629 19.9047 16.4192 20 16.1755 20C15.9319 20 15.6882 19.9047 15.5022 19.7139C15.1302 19.3325 15.1302 18.7139 15.5022 18.3327L19.7487 13.9767H1.95237C1.42647 13.9767 1 13.5393 1 12.9999C1 12.4605 1.42641 12.0232 1.95237 12.0232Z" fill="black"/>
</svg>
