<svg width="24" height="24" viewBox="0 0 24 24" fill="none" xmlns="http://www.w3.org/2000/svg">
<path d="M22.8518 6.61041C22.5906 6.22843 22.0732 6.13341 21.6964 6.39858L19.1184 8.21349C18.8843 8.37825 18.7499 8.65331 18.7622 8.94208C18.7696 9.11527 18.7732 9.27768 18.7732 9.43851C18.7732 14.7851 14.7635 20.3151 8.05327 20.3151C6.68536 20.3151 5.34147 20.051 4.08548 19.5414L8.06389 18.4124C8.50547 18.2871 8.76329 17.8223 8.63975 17.3743C8.51621 16.9264 8.05858 16.6647 7.61656 16.79L1.6066 18.4956C1.29155 18.585 1.05764 18.8538 1.00916 19.1821C0.960783 19.5103 1.10679 19.8369 1.38221 20.016C3.37745 21.3138 5.68431 22 8.05327 22C12.7089 22 15.6249 19.7683 17.2514 17.8962C19.2738 15.5681 20.4337 12.4855 20.4337 9.43862C20.4337 9.40527 20.4336 9.37191 20.4334 9.33844L22.6431 7.78287C23.0197 7.51758 23.1132 6.99273 22.8518 6.61041Z" fill="white"/>
<path d="M2.83265 6.34773L11.1998 10.6511C11.3185 10.7122 11.4471 10.7422 11.5751 10.7422C11.7573 10.7422 11.9384 10.6814 12.0875 10.5627C12.3414 10.3608 12.4569 10.028 12.3839 9.7091C12.3284 9.46718 12.3004 9.21536 12.3004 8.96086C12.3004 7.15449 13.7491 5.68484 15.5298 5.68484C16.42 5.68484 17.2793 6.06189 17.8873 6.71938C18.1144 6.96513 18.4641 7.0497 18.7763 6.93469L21.3587 5.9827C21.7896 5.82378 22.0121 5.3406 21.8555 4.90335C21.699 4.466 21.2223 4.24058 20.7917 4.39928L18.6903 5.17392C17.8126 4.42231 16.6885 4 15.5298 4C12.9915 4 10.8987 5.97237 10.6622 8.48565L3.58342 4.84506C3.17438 4.63458 2.6748 4.80058 2.46746 5.21548C2.26012 5.63048 2.42362 6.13736 2.83265 6.34773Z" fill="white"/>
<path d="M2.4047 11.3922L4.24319 11.9071C4.31714 11.9279 4.39142 11.9377 4.46459 11.9377C4.82868 11.9377 5.16277 11.6927 5.26439 11.3193C5.38649 10.8709 5.12701 10.4069 4.6851 10.283L2.84661 9.76807C2.40492 9.6443 1.9474 9.90734 1.8253 10.3558C1.70331 10.8044 1.96268 11.2683 2.4047 11.3922Z" fill="white"/>
<path d="M4.01652 13.8994C3.55834 13.917 3.201 14.3081 3.21838 14.773C3.23532 15.227 3.60339 15.5834 4.04752 15.5834C4.05814 15.5834 4.06877 15.5832 4.0794 15.5829L5.9128 15.5123C6.37098 15.4947 6.72831 15.1036 6.71105 14.6386C6.69367 14.1738 6.30722 13.8116 5.85003 13.8288L4.01652 13.8994Z" fill="white"/>
</svg>
