<svg width="32" height="32" viewBox="0 0 32 32" fill="none" xmlns="http://www.w3.org/2000/svg">
<path d="M16 1C7.72903 1 1 7.72903 1 16C1 24.2704 7.72903 31 16 31C24.2704 31 31 24.2704 31 16C31 7.72903 24.2716 1 16 1ZM22.6916 12.5669C22.6982 12.7155 22.7018 12.8654 22.7018 13.0152C22.7018 17.5776 19.2301 22.8366 12.8781 22.8366C10.9283 22.8366 9.11327 22.2668 7.58584 21.2868C7.85592 21.3188 8.13083 21.3351 8.40937 21.3351C10.0274 21.3351 11.5156 20.7829 12.6974 19.8572C11.1869 19.8295 9.91142 18.8313 9.47217 17.4592C9.68243 17.499 9.89934 17.5214 10.1211 17.5214C10.4359 17.5214 10.7416 17.4803 11.031 17.4012C9.45162 17.0845 8.26194 15.6894 8.26194 14.0158C8.26194 14.0013 8.26194 13.9862 8.26255 13.9723C8.72779 14.2303 9.26009 14.3862 9.82563 14.4037C8.89998 13.7856 8.29034 12.7282 8.29034 11.5307C8.29034 10.8975 8.46012 10.3042 8.75739 9.79421C10.4594 11.8835 13.0043 13.2575 15.8731 13.4025C15.8139 13.1494 15.7843 12.8865 15.7843 12.6152C15.7843 10.709 17.3299 9.16281 19.2361 9.16281C20.2294 9.16281 21.1255 9.58213 21.7563 10.2528C22.5435 10.0981 23.2807 9.81173 23.9495 9.41477C23.6897 10.2214 23.1441 10.8975 22.4293 11.3253C23.1284 11.2419 23.7955 11.057 24.4123 10.7821C23.9519 11.4733 23.3665 12.0817 22.6916 12.5669Z" fill="white"/>
</svg>
